<svg width="246" height="69" viewBox="0 0 246 69" fill="none" xmlns="http://www.w3.org/2000/svg">
<path fill-rule="evenodd" clip-rule="evenodd" d="M223.112 40.3074L207.653 44.9804L203.415 30.8216L218.873 26.1486L223.112 40.3074ZM217.123 29.4197L206.67 32.5797L209.403 41.7093L219.856 38.5493L217.123 29.4197Z" fill="black"/>
<path fill-rule="evenodd" clip-rule="evenodd" d="M184.618 44.6981V29.9125H168.476V44.6981H184.618ZM171.089 32.5384H182.005V42.0722H171.089V32.5384Z" fill="black"/>
<path fill-rule="evenodd" clip-rule="evenodd" d="M144.045 48.0596L128.38 44.1401L131.936 29.7926L147.6 33.7122L144.045 48.0596ZM144.433 35.6258L133.84 32.9752L131.548 42.2265L142.14 44.877L144.433 35.6258Z" fill="black"/>
<path fill-rule="evenodd" clip-rule="evenodd" d="M106.222 44.6981V29.9125H90.08V44.6981H106.222ZM92.6932 32.5384H103.609V42.0722H92.6932V32.5384Z" fill="black"/>
<path fill-rule="evenodd" clip-rule="evenodd" d="M71.38 39.4463H55.2375V24.6607H71.38V39.4463ZM68.7668 27.2866H57.8507V36.8204H68.7668V27.2866Z" fill="black"/>
<path fill-rule="evenodd" clip-rule="evenodd" d="M52.1539 51.8336H76.7789V45.7327H78.3955V50.9845H84.6811V57.0854H113.131L111.198 64.8847L125.072 68.3563L127.937 56.7948L146.305 61.3907L147.772 55.4706L153.94 57.0142L156.791 45.5104V69H171.089V57.0854H190.017V50.9845H196.374V48.0604L198.267 54.3827L204.286 52.5631L206.035 58.4053L231.702 50.6461V57.0854H246V5.25181H231.702V27.9966L228.349 16.7943L222.261 18.6346L220.492 12.7236L194.694 20.5223L195.644 23.6979H190.017V17.5253H163.077V23.6979H156.791V29.6076L154.333 28.9926L155.817 23.0029L129.676 16.4615L128.191 22.4512L122.092 20.9251L117.978 37.5252V23.6979H111.621V17.5253H84.6811V23.6979H83.1359V18.4461H76.7789V12.2735H57.8507V0H43.5531V17.5253H0V57.0854H14.2976V32.5384H18.9282V57.0854H33.2258V32.5384H37.9278V57.0854H52.1539V51.8336ZM231.702 37.1118L226.599 20.0654L220.512 21.9056L218.742 15.9947L197.949 22.2804L199.718 28.1914L196.374 29.2024V38.9452L200.016 51.1116L206.035 49.2921L207.784 55.1343L228.578 48.8486L226.829 43.0063L230.249 41.9725L231.702 46.8287V37.1118ZM234.316 47.114V36.9205L237.954 35.8205L240.753 45.1681L234.316 47.114ZM234.316 49.8561V54.4595H243.387V47.1139L234.316 49.8561ZM243.387 44.8517L239.704 32.5495L234.316 34.1783V20.1512H243.387V44.8517ZM193.761 30.2164V29.9923L193.699 30.0109L193.761 30.2164ZM193.761 27.2502V26.3238H187.404V20.1512H165.69V26.3238H159.404V30.2615L160.502 30.5361L159.404 34.9651V66.3741H168.476V54.4595H187.404V48.3586H193.761V39.3316L190.444 28.2528L193.761 27.2502ZM196.463 26.4333L196.374 26.4602V26.1352L196.463 26.4333ZM156.791 32.3137L151.166 30.9062L152.65 24.9164L131.58 19.6441L130.096 25.6338L123.996 24.1076L119.545 42.0722H124.335V57.0854H115.824L114.366 62.9712L123.168 65.1737L126.033 53.6122L144.4 58.2081L145.867 52.2881L152.036 53.8316L156.791 34.6431V32.3137ZM118.894 44.6981L116.475 54.4595H121.722V44.6981H118.894ZM113.782 54.4595L116.201 44.6981H115.365V26.3238H109.008V20.1512H87.2943V26.3238H83.1359V45.7327H81.0087V48.3586H87.2943V54.4595H109.008V48.3586H112.579V54.4595H113.782ZM80.5227 23.6979V21.072H74.1657V14.8994H55.2375V2.6259H46.1663V23.6979H52.1539V43.1068H52.4518V49.2077H74.1657V43.1068H78.3955V23.6979H80.5227ZM43.3266 26.3238H43.5531V45.7327H49.5408V54.4595H40.5409V29.9125H30.6126V54.4595H21.5414V29.9125H11.6844V54.4595H2.61318V20.1512H24.327V26.3238H27.8269V20.1512H43.3266V26.3238ZM49.5408 43.1068V26.3238H46.1663V43.1068H49.5408ZM234.316 17.7108V7.87771H243.387V17.7108H234.316Z" fill="black"/>
</svg>
